<svg width="103" height="97" viewBox="0 0 103 97" fill="none" xmlns="http://www.w3.org/2000/svg">
<mask id="mask0_1_44" style="mask-type:luminance" maskUnits="userSpaceOnUse" x="0" y="0" width="103" height="97">
<path d="M0.390625 0.682281H102.391V96.6823H0.390625V0.682281Z" fill="white"/>
</mask>
<g mask="url(#mask0_1_44)">
<path d="M2.34375 0.791646C1.27604 0.791646 0.390625 1.66665 0.390625 2.72915C0.390625 3.79165 1.27604 4.66665 2.34375 4.66665C3.40625 4.66665 4.29167 3.79165 4.29167 2.72915C4.29167 1.66665 3.44792 0.791646 2.34375 0.791646ZM26.875 0.755188C25.8073 0.755188 24.9271 1.63019 24.9271 2.69269C24.9271 3.75519 25.8073 4.63019 26.875 4.63019C27.9427 4.63019 28.8281 3.75519 28.8281 2.69269C28.8281 1.63019 27.9427 0.755188 26.875 0.755188ZM51.375 0.755188C50.3073 0.755188 49.4271 1.63019 49.4271 2.69269C49.4271 3.75519 50.3073 4.63019 51.375 4.63019C52.4427 4.63019 53.3229 3.75519 53.3229 2.69269C53.3229 1.63019 52.4792 0.755188 51.375 0.755188ZM75.9062 0.755188C74.8438 0.755188 73.9583 1.63019 73.9583 2.69269C73.9583 3.75519 74.8438 4.63019 75.9062 4.63019C76.974 4.63019 77.8594 3.75519 77.8594 2.69269C77.8594 1.63019 76.974 0.755188 75.9062 0.755188ZM100.406 4.66665C101.474 4.66665 102.354 3.79165 102.354 2.72915C102.354 1.66665 101.474 0.791646 100.406 0.791646C99.3385 0.791646 98.4583 1.66665 98.4583 2.72915C98.4583 3.79165 99.3385 4.66665 100.406 4.66665ZM2.34375 23.2552C1.27604 23.2552 0.390625 24.1354 0.390625 25.1927C0.390625 26.2552 1.27604 27.1354 2.34375 27.1354C3.40625 27.1354 4.29167 26.2552 4.29167 25.1927C4.32813 24.1354 3.44792 23.2552 2.34375 23.2552ZM26.875 23.2552C25.8073 23.2552 24.9271 24.1354 24.9271 25.1927C24.9271 26.2552 25.8073 27.1354 26.875 27.1354C27.9427 27.1354 28.8281 26.2552 28.8281 25.1927C28.8281 24.1354 27.9427 23.2552 26.875 23.2552ZM51.375 23.2552C50.3073 23.2552 49.4271 24.1354 49.4271 25.1927C49.4271 26.2552 50.3073 27.1354 51.375 27.1354C52.4427 27.1354 53.3229 26.2552 53.3229 25.1927C53.3594 24.1354 52.4792 23.2552 51.375 23.2552ZM75.9062 23.2552C74.8438 23.2552 73.9583 24.1354 73.9583 25.1927C73.9583 26.2552 74.8438 27.1354 75.9062 27.1354C76.974 27.1354 77.8594 26.2552 77.8594 25.1927C77.8594 24.1354 77.0104 23.2552 75.9062 23.2552ZM100.443 23.2552C99.375 23.2552 98.4948 24.1354 98.4948 25.1927C98.4948 26.2552 99.375 27.1354 100.443 27.1354C101.51 27.1354 102.391 26.2552 102.391 25.1927C102.391 24.1354 101.51 23.2552 100.443 23.2552ZM2.34375 46.4166C1.27604 46.4166 0.390625 47.2916 0.390625 48.3541C0.390625 49.4166 1.27604 50.2916 2.34375 50.2916C3.40625 50.2916 4.29167 49.4166 4.29167 48.3541C4.32813 47.2916 3.44792 46.4166 2.34375 46.4166ZM26.875 46.4166C25.8073 46.4166 24.9271 47.2916 24.9271 48.3541C24.9271 49.4166 25.8073 50.2916 26.875 50.2916C27.9427 50.2916 28.8281 49.4166 28.8281 48.3541C28.8281 47.2916 27.9427 46.4166 26.875 46.4166ZM51.4115 46.4166C50.3438 46.4166 49.4635 47.2916 49.4635 48.3541C49.4635 49.4166 50.3438 50.2916 51.4115 50.2916C52.4792 50.2916 53.3594 49.4166 53.3594 48.3541C53.3594 47.2916 52.4792 46.4166 51.4115 46.4166ZM75.9062 46.4166C74.8438 46.4166 73.9583 47.2916 73.9583 48.3541C73.9583 49.4166 74.8438 50.2916 75.9062 50.2916C76.974 50.2916 77.8594 49.4166 77.8594 48.3541C77.8594 47.2916 77.0104 46.4166 75.9062 46.4166ZM100.443 46.4166C99.375 46.4166 98.4948 47.2916 98.4948 48.3541C98.4948 49.4166 99.375 50.2916 100.443 50.2916C101.51 50.2916 102.391 49.4166 102.391 48.3541C102.391 47.2916 101.51 46.4166 100.443 46.4166ZM2.38021 68.9166C1.3125 68.9166 0.427083 69.7916 0.427083 70.8541C0.427083 71.9166 1.3125 72.7916 2.38021 72.7916C3.44792 72.7916 4.32812 71.9166 4.32812 70.8541C4.32812 69.7916 3.44792 68.9166 2.38021 68.9166ZM26.875 68.9166C25.8073 68.9166 24.9271 69.7916 24.9271 70.8541C24.9271 71.9166 25.8073 72.7916 26.875 72.7916C27.9427 72.7916 28.8281 71.9166 28.8281 70.8541C28.8281 69.7916 27.9792 68.9166 26.875 68.9166ZM51.4115 68.9166C50.3438 68.9166 49.4635 69.7916 49.4635 70.8541C49.4635 71.9166 50.3438 72.7916 51.4115 72.7916C52.4792 72.7916 53.3594 71.9166 53.3594 70.8541C53.3594 69.7916 52.4792 68.9166 51.4115 68.9166ZM75.9062 68.9166C74.8438 68.9166 73.9583 69.7916 73.9583 70.8541C73.9583 71.9166 74.8438 72.7916 75.9062 72.7916C76.974 72.7916 77.8594 71.9166 77.8594 70.8541C77.8958 69.7916 77.0104 68.9166 75.9062 68.9166ZM100.443 68.9166C99.375 68.9166 98.4948 69.7916 98.4948 70.8541C98.4948 71.9166 99.375 72.7916 100.443 72.7916C101.51 72.7916 102.391 71.9166 102.391 70.8541C102.391 69.7916 101.51 68.9166 100.443 68.9166ZM2.38021 92.7344C1.3125 92.7344 0.427083 93.6146 0.427083 94.6719C0.427083 95.7344 1.3125 96.6146 2.38021 96.6146C3.44792 96.6146 4.32812 95.7344 4.32812 94.6719C4.32812 93.6146 3.44792 92.7344 2.38021 92.7344ZM26.875 92.7344C25.8073 92.7344 24.9271 93.6146 24.9271 94.6719C24.9271 95.7344 25.8073 96.6146 26.875 96.6146C27.9427 96.6146 28.8281 95.7344 28.8281 94.6719C28.8646 93.6146 27.9792 92.7344 26.875 92.7344ZM51.4115 92.7344C50.3438 92.7344 49.4635 93.6146 49.4635 94.6719C49.4635 95.7344 50.3438 96.6146 51.4115 96.6146C52.4792 96.6146 53.3594 95.7344 53.3594 94.6719C53.3594 93.6146 52.4792 92.7344 51.4115 92.7344ZM75.9062 92.7344C74.8438 92.7344 73.9583 93.6146 73.9583 94.6719C73.9583 95.7344 74.8438 96.6146 75.9062 96.6146C76.974 96.6146 77.8594 95.7344 77.8594 94.6719C77.8958 93.6146 77.0104 92.7344 75.9062 92.7344ZM100.443 92.7344C99.375 92.7344 98.4948 93.6146 98.4948 94.6719C98.4948 95.7344 99.375 96.6146 100.443 96.6146C101.51 96.6146 102.391 95.7344 102.391 94.6719C102.391 93.6146 101.51 92.7344 100.443 92.7344Z" fill="white"/>
</g>
</svg>
