<svg width="210" height="68" viewBox="0 0 210 68" fill="none" xmlns="http://www.w3.org/2000/svg">
<path d="M5.85284 67.4854L18.9206 65.7979C17.7851 65.0427 16.9466 62.7198 16.6601 60.5062L14.5143 43.8968L20.6028 54.0531C21.1706 54.2979 22.0924 54.4489 22.9362 54.3396C31.9674 53.1729 37.1914 44.7979 36.0664 36.0739C34.8893 26.9489 27.4414 21.2458 16.1497 22.7041L0.337219 24.7458C1.46743 25.4958 2.31639 27.8656 2.60284 30.0791L6.69139 61.751C6.97264 63.9646 6.75909 66.4698 5.85284 67.4854ZM17.9883 31.0218C22.8581 30.3916 25.6185 33.6364 26.1028 37.3604C26.6393 41.5218 25.1653 45.4489 20.8685 46.0062C17.7226 46.4125 15.957 44.9281 14.3008 42.2146L12.9362 31.6729L17.9883 31.0218Z" fill="white"/>
<path d="M175.363 18.5402C177.395 20.6652 178.879 22.41 180.655 24.9725C181.967 22.2381 184.384 20.7537 187.577 20.3423C191.077 19.8891 193.868 21.6443 195.072 25.0454C193.618 24.6027 192.03 24.4933 190.301 24.7173C183.483 25.5975 177.785 31.3787 178.587 37.5766C179.171 42.0975 181.853 45.4412 187.389 44.7277C189.785 44.4204 191.551 42.7485 191.9 41.9829C192.921 39.7798 194.905 35.6079 196.29 32.7277L196.895 37.4204C197.243 40.1235 198.905 43.2381 201.124 42.9516C202.228 42.811 206.431 39.4308 209.65 37.1704L209.624 36.9464C206.431 37.3579 205.754 34.5193 205.431 32.0402L204.28 23.1391C203.16 14.4568 194.868 10.8891 186.405 11.9829C181.358 12.6339 177.733 14.9048 175.363 18.5402ZM187.582 32.9516C187.233 30.2485 189.665 26.061 193.384 25.5818C194.092 25.4881 194.738 25.5871 195.301 25.785C195.405 26.2225 195.509 26.7016 195.572 27.1912L196.082 31.1287C195.092 33.5558 193.186 35.1964 191.15 35.4621C188.754 35.7693 187.764 34.3683 187.582 32.9516Z" fill="white"/>
<path d="M54.3287 52.6712L55.412 61.0879L80.2609 57.8795L79.1724 49.4629L65.6203 51.2129L77.3443 35.291L76.2557 26.8743L51.412 30.0827L52.4953 38.4993L66.0943 36.7441L54.3703 52.666L54.3287 52.6712Z" fill="white"/>
<path d="M80.9463 49.2352L82.0296 57.6518L106.879 54.4435L105.79 46.0268L92.2379 47.7768L103.962 31.855L102.873 23.4383L78.0296 26.6466L79.1129 35.0633L92.7119 33.3081L80.9879 49.23L80.9463 49.2352Z" fill="white"/>
<path d="M133.014 23.9179L133.04 24.1366C137.295 23.5897 138.04 28.6731 138.201 29.9127L140.092 44.5741C140.378 46.7877 140.154 49.246 139.253 50.2668L151.43 48.6939C150.3 47.9387 149.451 45.5689 149.165 43.3554L147.342 29.2252C147.029 26.7929 148.498 25.2512 151.816 24.8241C154.123 24.5272 156.785 25.2616 157.649 26.4127C157.764 23.4231 158.128 20.0012 158.623 17.1887C157.951 16.5116 155.894 15.9231 154.118 16.147C149.472 16.7512 147.253 21.897 146.915 25.9074L145.795 17.2252C143.061 19.4231 137.368 23.1314 133.014 23.9179Z" fill="white"/>
<path d="M159.055 20.5561L159.082 20.7749C163.337 20.228 164.082 25.3114 164.243 26.5509L166.134 41.2124C166.42 43.4259 166.196 45.8843 165.295 46.9051L177.472 45.3322C176.342 44.577 175.493 42.2072 175.207 39.9936L171.837 13.8634C169.102 16.0614 163.41 19.7697 159.055 20.5561ZM167.175 12.3009C170.451 11.8791 172.769 8.87906 172.352 5.64469C171.925 2.36865 168.925 0.0509391 165.649 0.478022C162.415 0.894688 160.102 3.89469 160.524 7.17073C160.941 10.4051 163.941 12.7176 167.175 12.3009Z" fill="white"/>
<path d="M35.224 36.5413L35.25 36.7601C39.5052 36.2132 40.25 41.2965 40.4115 42.5361L42.3021 57.1976C42.5886 59.4111 42.3646 61.8694 41.4636 62.8903L53.6407 61.3174C52.5105 60.5621 51.6615 58.1924 51.375 55.9788L48.0052 29.8486C45.2709 32.0465 39.5782 35.7549 35.224 36.5413ZM43.3438 28.2861C46.6198 27.8642 48.9375 24.8642 48.5209 21.6299C48.0938 18.3538 45.0938 16.0361 41.8177 16.4632C38.5834 16.8799 36.2709 19.8799 36.6927 23.1559C37.1094 26.3903 40.1094 28.7028 43.3438 28.2861Z" fill="white"/>
<path d="M104.767 27.6533C106.798 29.7783 108.283 31.5231 110.059 34.0856C111.371 31.3513 113.788 29.8669 116.981 29.4554C120.481 29.0023 123.272 30.7575 124.475 34.1585C123.022 33.7158 121.434 33.6065 119.704 33.8304C112.887 34.7106 107.189 40.4919 107.991 46.6898C108.574 51.2106 111.257 54.5544 116.793 53.8408C119.189 53.5336 120.954 51.8617 121.303 51.096C122.324 48.8929 124.309 44.721 125.694 41.8408L126.298 46.5335C126.647 49.2367 128.309 52.3513 130.527 52.0648C131.632 51.9242 135.835 48.544 139.053 46.2835L139.027 46.0596C135.835 46.471 135.158 43.6325 134.835 41.1533L133.684 32.2523C132.564 23.57 124.272 20.0023 115.809 21.096C110.762 21.7471 107.137 24.0179 104.767 27.6533ZM116.986 42.0648C116.637 39.3617 119.069 35.1742 122.788 34.695C123.496 34.6013 124.142 34.7002 124.704 34.8981C124.809 35.3356 124.913 35.8148 124.975 36.3044L125.486 40.2419C124.496 42.669 122.59 44.3096 120.553 44.5752C118.158 44.8825 117.168 43.4815 116.986 42.0648Z" fill="white"/>
</svg>
